<mxfile host="app.diagrams.net" agent="Mozilla/5.0 (Windows NT 10.0; Win64; x64) AppleWebKit/537.36 (KHTML, like Gecko) Chrome/131.0.0.0 Safari/537.36" version="24.8.6">
  <diagram name="Page-1" id="wHnzDf8OpKGsBH9KBf9Y">
    <mxGraphModel dx="955" dy="568" grid="1" gridSize="10" guides="1" tooltips="1" connect="1" arrows="1" fold="1" page="1" pageScale="1" pageWidth="850" pageHeight="1100" math="0" shadow="0">
      <root>
        <mxCell id="0" />
        <mxCell id="1" parent="0" />
        <mxCell id="RDDA6BBOxE4qUe0INSzU-12" value="" style="edgeStyle=orthogonalEdgeStyle;rounded=0;orthogonalLoop=1;jettySize=auto;html=1;" edge="1" parent="1" source="RDDA6BBOxE4qUe0INSzU-1" target="RDDA6BBOxE4qUe0INSzU-11">
          <mxGeometry relative="1" as="geometry" />
        </mxCell>
        <mxCell id="RDDA6BBOxE4qUe0INSzU-1" value="START" style="ellipse;whiteSpace=wrap;html=1;aspect=fixed;" vertex="1" parent="1">
          <mxGeometry x="385" y="20" width="80" height="80" as="geometry" />
        </mxCell>
        <mxCell id="RDDA6BBOxE4qUe0INSzU-14" value="" style="edgeStyle=orthogonalEdgeStyle;rounded=0;orthogonalLoop=1;jettySize=auto;html=1;" edge="1" parent="1" source="RDDA6BBOxE4qUe0INSzU-11" target="RDDA6BBOxE4qUe0INSzU-13">
          <mxGeometry relative="1" as="geometry" />
        </mxCell>
        <mxCell id="RDDA6BBOxE4qUe0INSzU-11" value="Nhập n" style="shape=parallelogram;perimeter=parallelogramPerimeter;whiteSpace=wrap;html=1;fixedSize=1;" vertex="1" parent="1">
          <mxGeometry x="365" y="190" width="120" height="60" as="geometry" />
        </mxCell>
        <mxCell id="RDDA6BBOxE4qUe0INSzU-16" value="" style="edgeStyle=orthogonalEdgeStyle;rounded=0;orthogonalLoop=1;jettySize=auto;html=1;" edge="1" parent="1" source="RDDA6BBOxE4qUe0INSzU-13" target="RDDA6BBOxE4qUe0INSzU-15">
          <mxGeometry relative="1" as="geometry" />
        </mxCell>
        <mxCell id="RDDA6BBOxE4qUe0INSzU-18" value="" style="edgeStyle=orthogonalEdgeStyle;rounded=0;orthogonalLoop=1;jettySize=auto;html=1;" edge="1" parent="1" source="RDDA6BBOxE4qUe0INSzU-13" target="RDDA6BBOxE4qUe0INSzU-17">
          <mxGeometry relative="1" as="geometry" />
        </mxCell>
        <mxCell id="RDDA6BBOxE4qUe0INSzU-13" value="n % 2 = 0" style="rhombus;whiteSpace=wrap;html=1;" vertex="1" parent="1">
          <mxGeometry x="385" y="320" width="80" height="80" as="geometry" />
        </mxCell>
        <mxCell id="RDDA6BBOxE4qUe0INSzU-24" value="" style="edgeStyle=orthogonalEdgeStyle;rounded=0;orthogonalLoop=1;jettySize=auto;html=1;" edge="1" parent="1" source="RDDA6BBOxE4qUe0INSzU-15" target="RDDA6BBOxE4qUe0INSzU-21">
          <mxGeometry relative="1" as="geometry">
            <Array as="points">
              <mxPoint x="585" y="480" />
              <mxPoint x="585" y="480" />
            </Array>
          </mxGeometry>
        </mxCell>
        <mxCell id="RDDA6BBOxE4qUe0INSzU-15" value="SỐ CHẴN" style="shape=parallelogram;perimeter=parallelogramPerimeter;whiteSpace=wrap;html=1;fixedSize=1;" vertex="1" parent="1">
          <mxGeometry x="525" y="330" width="120" height="60" as="geometry" />
        </mxCell>
        <mxCell id="RDDA6BBOxE4qUe0INSzU-22" value="" style="edgeStyle=orthogonalEdgeStyle;rounded=0;orthogonalLoop=1;jettySize=auto;html=1;" edge="1" parent="1" source="RDDA6BBOxE4qUe0INSzU-17" target="RDDA6BBOxE4qUe0INSzU-21">
          <mxGeometry relative="1" as="geometry">
            <Array as="points">
              <mxPoint x="265" y="490" />
              <mxPoint x="265" y="490" />
            </Array>
          </mxGeometry>
        </mxCell>
        <mxCell id="RDDA6BBOxE4qUe0INSzU-17" value="SỐ LẺ" style="shape=parallelogram;perimeter=parallelogramPerimeter;whiteSpace=wrap;html=1;fixedSize=1;" vertex="1" parent="1">
          <mxGeometry x="205" y="330" width="120" height="60" as="geometry" />
        </mxCell>
        <mxCell id="RDDA6BBOxE4qUe0INSzU-19" value="Đ" style="text;html=1;align=center;verticalAlign=middle;resizable=0;points=[];autosize=1;strokeColor=none;fillColor=none;" vertex="1" parent="1">
          <mxGeometry x="480" y="320" width="30" height="30" as="geometry" />
        </mxCell>
        <mxCell id="RDDA6BBOxE4qUe0INSzU-20" value="S" style="text;html=1;align=center;verticalAlign=middle;resizable=0;points=[];autosize=1;strokeColor=none;fillColor=none;" vertex="1" parent="1">
          <mxGeometry x="340" y="320" width="30" height="30" as="geometry" />
        </mxCell>
        <mxCell id="RDDA6BBOxE4qUe0INSzU-21" value="END" style="ellipse;whiteSpace=wrap;html=1;" vertex="1" parent="1">
          <mxGeometry x="385" y="520" width="80" height="80" as="geometry" />
        </mxCell>
      </root>
    </mxGraphModel>
  </diagram>
</mxfile>
